# xmcd
#
# Track frame offsets: 
#        150
#        13591
#        33913
#        47059
#        63780
#        86729
#        97935
#        114352
#        136974
#
# Disc length: 2124 seconds
#
# Revision: 0
# Processed by: cddbd v1.5.2PL0 Copyright (c) Steve Scherf et al.
# Submitted via: ExactAudioCopy v0.99pb1
#
DISCID=66084a09
DTITLE=The Goddamn Rattlesnake - Get Comfortable
DYEAR=2007
DGENRE=Indie
TTITLE0=Ain't Got Time
TTITLE1=Break My Heart
TTITLE2=Constantina
TTITLE3=Get Comfortable
TTITLE4=We'll Take This Town
TTITLE5=White Roses
TTITLE6=Sonny
TTITLE7=Foggy River
TTITLE8=Where Will This Ship Go To Die?
EXTD=
EXTT0=
EXTT1=
EXTT2=
EXTT3=
EXTT4=
EXTT5=
EXTT6=
EXTT7=
EXTT8=
PLAYORDER=
